<?xml version="1.0" standalone="no"?>
<!DOCTYPE svg PUBLIC "-//W3C//DTD SVG 20010904//EN"
 "http://www.w3.org/TR/2001/REC-SVG-20010904/DTD/svg10.dtd">
<svg version="1.0" xmlns="http://www.w3.org/2000/svg"
 width="384.000000pt" height="384.000000pt" viewBox="0 0 384.000000 384.000000"
 preserveAspectRatio="xMidYMid meet">
<metadata>
Created by potrace 1.14, written by Peter Selinger 2001-2017
</metadata>
<g transform="translate(0.000000,384.000000) scale(0.100000,-0.100000)"
fill="#000000" stroke="none">
<path d="M1150 2910 c0 -5 -27 -12 -60 -16 -33 -4 -60 -11 -60 -15 0 -5 -11
-9 -25 -9 -16 0 -25 -6 -25 -15 0 -8 -9 -15 -20 -15 -23 0 -75 -48 -85 -79 -3
-11 -11 -21 -16 -21 -5 0 -9 -38 -9 -85 0 -79 2 -88 25 -109 14 -13 25 -28 25
-35 0 -6 6 -11 13 -11 7 0 21 -11 31 -25 10 -14 27 -25 38 -25 11 0 26 -7 34
-15 9 -8 26 -15 40 -15 13 0 24 -4 24 -10 0 -5 18 -10 39 -10 22 0 41 -5 43
-12 3 -7 32 -14 71 -16 37 -2 67 -8 67 -13 0 -5 13 -9 29 -9 16 0 36 -7 45
-15 8 -8 24 -15 35 -15 14 0 23 -8 27 -25 3 -14 10 -25 15 -25 5 0 9 -7 9 -15
0 -8 7 -15 15 -15 8 0 15 7 15 15 0 8 7 15 15 15 9 0 26 11 39 25 13 14 28 25
35 25 6 0 11 7 11 15 0 8 5 15 11 15 6 0 17 6 24 13 33 29 45 37 55 37 5 0 10
6 10 14 0 8 6 16 13 19 13 5 -28 47 -46 47 -5 0 -20 11 -33 25 -13 14 -32 25
-43 25 -10 0 -21 5 -23 11 -2 5 -22 13 -46 16 -23 3 -42 10 -42 14 0 5 -24 9
-52 9 -31 1 -61 7 -72 15 -11 9 -41 15 -68 15 -26 0 -48 5 -48 10 0 6 -11 10
-24 10 -34 0 -58 27 -50 54 4 11 11 23 15 24 5 2 9 10 9 18 0 21 168 20 176
-1 4 -8 10 -15 16 -15 16 0 38 -28 38 -48 0 -11 7 -23 16 -26 20 -8 107 -8
212 1 l82 6 0 38 c0 21 -7 44 -15 53 -8 8 -15 24 -15 35 0 12 -6 21 -15 21 -8
0 -15 5 -15 11 0 15 -22 35 -48 43 -12 4 -22 12 -22 17 0 5 -11 9 -25 9 -14 0
-25 4 -25 9 0 5 -25 12 -55 16 -30 3 -55 11 -55 16 0 5 -61 9 -140 9 -82 0
-140 -4 -140 -10z"/>
<path d="M1870 2669 l0 -171 33 6 c17 4 34 11 35 16 2 6 26 10 54 10 31 0 55
6 64 15 9 8 33 15 55 15 21 0 39 5 39 10 0 6 23 10 50 10 28 0 50 5 50 10 0 6
6 10 13 10 25 0 41 18 30 32 -6 7 -14 34 -18 61 -4 26 -11 47 -16 47 -5 0 -9
16 -9 36 0 61 -8 64 -204 64 l-176 0 0 -171z"/>
<path d="M2493 2825 c-7 -8 -13 -29 -13 -47 0 -19 -7 -44 -16 -56 -8 -12 -14
-37 -12 -55 2 -26 7 -31 23 -29 11 2 22 8 23 13 2 5 28 9 58 9 30 0 54 4 54
10 0 5 23 12 50 16 28 4 50 10 50 15 0 5 23 9 50 9 28 0 50 4 50 9 0 5 11 12
25 15 22 6 25 11 25 56 l0 50 -177 0 c-141 -1 -181 -4 -190 -15z"/>
<path d="M2450 2571 c0 -5 -10 -11 -22 -13 -19 -2 -24 -10 -26 -40 -2 -21 -7
-38 -12 -38 -5 0 -10 -12 -12 -27 -5 -45 -28 -40 -28 6 0 23 -4 41 -10 41 -5
0 -10 7 -10 15 0 11 -11 15 -40 15 -22 0 -40 -4 -40 -10 0 -5 -18 -13 -40 -16
-22 -4 -40 -10 -40 -15 0 -5 -11 -9 -25 -9 -21 0 -25 -5 -25 -30 0 -16 4 -30
10 -30 5 0 12 -22 16 -50 4 -27 10 -50 15 -50 5 0 9 -15 9 -32 0 -18 7 -42 15
-52 8 -11 15 -32 15 -48 0 -15 5 -28 10 -28 6 0 10 -18 10 -39 0 -22 7 -46 15
-55 8 -8 15 -22 15 -30 0 -9 8 -25 17 -36 15 -17 30 -20 96 -20 94 0 117 10
117 50 0 17 5 30 10 30 6 0 10 12 10 28 1 15 7 38 15 52 8 14 14 37 15 53 0
15 4 27 9 27 5 0 11 18 15 40 3 22 11 40 16 40 6 0 10 16 10 35 0 19 4 35 9
35 6 0 11 19 13 42 2 23 9 43 16 46 9 3 12 -48 12 -231 l0 -235 23 -6 c12 -3
64 -6 115 -6 l92 0 0 300 0 300 -205 0 c-120 0 -205 -4 -205 -9z"/>
<path d="M2050 2441 c0 -5 -13 -12 -30 -16 -16 -4 -30 -11 -30 -16 0 -5 -11
-9 -25 -9 -14 0 -25 -4 -25 -9 0 -5 -10 -13 -22 -17 -46 -14 -48 -23 -48 -213
l0 -181 99 0 c77 0 103 4 115 16 14 13 16 49 16 235 l0 219 -25 0 c-14 0 -25
-4 -25 -9z"/>
<path d="M880 2310 c0 -5 -18 -10 -40 -10 -38 0 -40 -2 -40 -30 0 -16 4 -30 9
-30 5 0 12 -11 15 -25 4 -14 11 -25 16 -25 6 0 10 -11 10 -25 0 -16 6 -25 15
-25 8 0 15 -5 15 -10 0 -15 58 -70 74 -70 8 0 16 -7 20 -15 3 -9 19 -15 41
-15 19 0 35 -4 35 -10 0 -6 32 -10 76 -10 69 0 79 3 100 25 13 14 30 25 39 25
8 0 15 7 15 15 0 8 5 15 11 15 7 0 22 11 35 25 13 14 30 25 39 25 8 0 15 5 15
10 0 6 -30 10 -70 10 -54 0 -72 4 -76 15 -4 8 -17 15 -30 15 -13 0 -24 5 -24
11 0 14 -25 39 -39 39 -6 0 -11 18 -11 40 l0 40 -125 0 c-77 0 -125 -4 -125
-10z"/>
<path d="M1720 2261 c0 -5 -11 -12 -25 -15 -14 -4 -25 -11 -25 -16 0 -6 -7
-10 -15 -10 -8 0 -15 -4 -15 -10 0 -5 -11 -12 -25 -16 -14 -3 -25 -10 -25 -14
0 -4 -11 -11 -25 -14 -14 -4 -25 -11 -25 -16 0 -6 -7 -10 -15 -10 -8 0 -15 -7
-15 -15 0 -8 -5 -15 -11 -15 -6 0 -17 -6 -24 -12 -31 -28 -44 -38 -50 -38 -9
0 -65 -57 -65 -65 0 -7 97 -1 183 11 26 3 47 10 47 15 0 5 11 9 25 9 15 0 25
6 25 14 0 7 9 16 20 19 11 3 23 13 27 23 4 10 17 28 30 40 13 12 23 33 23 48
0 14 5 26 10 26 6 0 10 16 10 35 0 28 -4 35 -20 35 -11 0 -20 -4 -20 -9z"/>
<path d="M2610 1745 c0 -77 -4 -125 -10 -125 -5 0 -10 -7 -10 -15 0 -11 -11
-15 -40 -15 -22 0 -40 5 -40 10 0 6 -11 10 -25 10 -24 0 -25 -3 -25 -60 0 -47
3 -60 15 -60 8 0 15 5 15 10 0 6 23 10 50 10 38 0 50 -4 50 -15 0 -8 5 -15 10
-15 6 0 10 -48 10 -122 0 -70 5 -129 11 -138 8 -11 12 -12 16 -2 2 7 22 12 44
12 l39 0 0 320 0 320 -55 0 -55 0 0 -125z"/>
<path d="M3470 1796 l0 -74 -30 -7 c-17 -4 -50 -6 -73 -5 -73 4 -77 3 -77 -30
0 -46 25 -69 71 -63 21 3 54 2 73 -1 l36 -7 0 -90 0 -90 53 3 52 3 3 218 2
217 -55 0 -55 0 0 -74z"/>
<path d="M3084 1851 c-2 -2 -4 -22 -4 -43 0 -21 -4 -38 -9 -38 -5 0 -11 -22
-15 -50 -4 -27 -11 -50 -16 -50 -6 0 -10 -5 -10 -11 0 -14 -106 -119 -120
-119 -5 0 -10 -4 -10 -10 0 -5 -11 -12 -25 -16 -18 -4 -25 -13 -25 -30 0 -13
5 -24 11 -24 14 0 39 -25 39 -39 0 -6 7 -11 15 -11 8 0 15 4 15 9 0 5 11 12
25 15 14 4 25 11 25 16 0 6 5 10 11 10 6 0 17 6 24 13 33 29 45 37 55 37 5 0
10 7 10 15 0 8 4 15 9 15 5 0 13 9 16 20 4 13 15 20 31 20 17 0 24 -5 24 -20
0 -11 5 -20 10 -20 12 0 25 -10 70 -52 15 -16 36 -28 46 -28 9 0 22 -8 29 -17
12 -16 16 -14 50 20 40 40 43 70 7 75 -12 2 -22 8 -22 13 0 5 -7 9 -15 9 -9 0
-18 7 -21 15 -4 8 -15 15 -25 15 -10 0 -19 4 -19 9 0 5 -13 23 -30 39 -16 17
-30 35 -30 40 0 6 -5 12 -12 14 -15 5 -14 91 2 96 17 6 11 49 -7 57 -20 9
-102 13 -109 6z"/>
<path d="M428 1813 c-10 -2 -18 -9 -18 -14 0 -5 -11 -9 -25 -9 -14 0 -25 -5
-25 -10 0 -10 -8 -22 -37 -55 -16 -17 -18 -165 -3 -165 6 0 10 -7 10 -16 0
-22 67 -84 91 -84 10 0 19 -7 19 -15 0 -9 9 -15 25 -15 14 0 25 -4 25 -10 0
-5 11 -10 25 -10 14 0 25 -4 25 -10 0 -5 11 -12 25 -16 14 -3 25 -10 25 -15 0
-5 7 -9 15 -9 8 0 15 -7 15 -15 0 -8 5 -15 10 -15 6 0 10 -22 10 -50 0 -27 -4
-50 -10 -50 -5 0 -10 -7 -10 -15 0 -8 -7 -15 -15 -15 -8 0 -15 -4 -15 -10 0
-6 -32 -10 -75 -10 -43 0 -75 4 -75 10 0 6 -11 10 -24 10 -13 0 -31 11 -42 25
-10 14 -24 25 -31 25 -7 0 -13 7 -13 15 0 8 -4 15 -9 15 -14 0 -21 -27 -21
-79 0 -55 31 -101 68 -101 12 0 22 -4 22 -10 0 -6 48 -10 125 -10 77 0 125 4
125 10 0 6 9 10 20 10 12 0 31 11 44 25 13 14 28 25 35 25 6 0 11 11 11 24 0
13 6 26 13 29 17 5 16 169 -1 175 -7 2 -12 10 -12 18 0 8 -5 14 -11 14 -14 0
-39 25 -39 39 0 6 -7 11 -15 11 -8 0 -15 4 -15 9 0 5 -11 12 -25 15 -14 4 -25
11 -25 16 0 6 -12 10 -26 10 -14 0 -32 7 -40 15 -9 8 -26 15 -40 15 -13 0 -24
5 -24 10 0 6 -7 10 -15 10 -8 0 -15 7 -15 15 0 8 -4 15 -10 15 -5 0 -10 21
-10 46 0 68 16 79 114 78 53 0 81 -4 84 -12 2 -7 13 -12 23 -12 11 0 30 -11
43 -25 36 -39 46 -32 46 33 0 61 -13 82 -59 97 -12 3 -21 11 -21 16 0 9 -208
11 -242 2z"/>
<path d="M780 1771 c0 -35 4 -51 16 -55 9 -3 60 -6 115 -6 l99 0 0 -315 0
-315 59 0 c44 0 60 4 65 16 3 9 6 150 6 315 l0 299 115 0 115 0 0 40 c0 22 5
40 10 40 6 0 10 -4 10 -10 0 -5 7 -10 15 -10 8 0 15 -9 15 -20 0 -12 11 -31
25 -44 14 -13 25 -33 25 -45 0 -12 6 -21 15 -21 8 0 15 -9 15 -20 0 -12 11
-31 25 -44 14 -13 25 -33 25 -45 0 -12 6 -21 15 -21 8 0 15 -7 15 -15 0 -8 5
-15 10 -15 6 0 10 -11 10 -25 0 -14 -4 -25 -10 -25 -5 0 -10 -9 -10 -20 0 -11
-7 -23 -15 -26 -8 -4 -15 -13 -15 -21 0 -7 -11 -24 -25 -37 -14 -13 -25 -31
-25 -40 0 -9 -11 -27 -25 -40 -14 -13 -25 -33 -25 -45 0 -12 -6 -21 -15 -21
-8 0 -15 -9 -15 -20 0 -12 -11 -31 -25 -44 -14 -13 -25 -26 -25 -30 0 -3 27
-6 61 -6 54 0 64 3 90 29 16 16 29 39 29 50 0 12 6 21 15 21 8 0 15 7 15 15 0
8 5 15 10 15 6 0 10 9 10 20 0 11 7 23 15 26 8 4 15 15 15 25 0 19 28 59 42
59 5 0 8 -5 8 -10 0 -6 11 -21 25 -34 14 -13 25 -33 25 -45 0 -12 6 -21 15
-21 9 0 15 -9 15 -21 0 -12 11 -32 25 -45 14 -13 25 -30 25 -39 0 -32 27 -45
89 -45 48 0 61 3 61 15 0 8 -4 15 -10 15 -5 0 -10 7 -10 15 0 9 -11 26 -25 39
-14 13 -25 33 -25 45 0 12 -6 21 -15 21 -9 0 -15 9 -15 21 0 12 -11 32 -25 45
-14 13 -25 31 -25 40 0 9 -11 27 -25 40 -14 13 -25 28 -25 35 0 6 -8 17 -17
24 -16 12 -16 14 0 29 9 10 17 22 17 28 0 6 11 21 25 34 14 13 25 32 25 44 0
11 4 20 10 20 5 0 12 11 16 25 3 14 10 25 15 25 5 0 9 7 9 15 0 8 7 15 15 15
9 0 15 9 15 21 0 12 11 32 25 45 14 13 25 30 25 39 0 8 5 15 10 15 6 0 10 7
10 15 0 12 -13 15 -59 15 -72 0 -91 -6 -91 -31 0 -10 -4 -19 -10 -19 -5 0 -10
-6 -10 -14 0 -8 -6 -21 -14 -28 -7 -8 -17 -24 -20 -36 -4 -12 -12 -22 -17 -22
-5 0 -9 -7 -9 -15 0 -8 -4 -15 -9 -15 -5 0 -12 -10 -15 -22 -3 -13 -13 -32
-21 -42 -15 -20 -15 -19 -35 2 -11 11 -20 30 -20 42 0 11 -7 20 -15 20 -9 0
-15 9 -15 25 0 14 -4 25 -10 25 -5 0 -10 7 -10 15 0 8 -4 15 -9 15 -5 0 -13
10 -17 22 -3 12 -12 28 -18 35 -6 7 -17 19 -24 28 -11 13 -61 15 -372 15
l-360 0 0 -49z"/>
<path d="M2063 1813 c-8 -3 -13 -23 -13 -49 0 -28 4 -44 13 -45 6 0 68 -1 137
-2 l125 -2 3 -33 c2 -19 -3 -38 -12 -48 -9 -8 -16 -22 -16 -30 0 -8 -4 -14
-10 -14 -5 0 -10 -7 -10 -15 0 -8 -7 -15 -15 -15 -8 0 -15 -5 -15 -11 0 -14
-25 -39 -39 -39 -6 0 -11 -7 -11 -15 0 -8 -7 -15 -15 -15 -8 0 -15 -4 -15 -10
0 -5 -11 -10 -25 -10 -16 0 -25 -6 -25 -15 0 -9 -9 -15 -25 -15 -14 0 -25 -4
-25 -9 0 -5 -12 -11 -27 -13 -37 -4 -41 -36 -9 -71 25 -27 86 -39 86 -17 0 6
11 10 24 10 13 0 26 7 30 15 3 8 15 15 26 15 11 0 20 5 20 10 0 6 7 10 15 10
8 0 15 7 15 15 0 8 5 15 11 15 11 0 119 104 119 115 0 4 7 13 15 21 8 9 15 26
15 40 0 13 4 24 9 24 5 0 12 11 15 25 4 14 11 25 16 25 6 0 10 25 10 55 0 30
5 55 10 55 6 0 10 11 10 25 l0 25 -202 -1 c-112 0 -209 -3 -215 -6z"/>
<path d="M3017 1389 c-19 -18 -23 -74 -6 -85 7 -4 104 -6 218 -5 172 1 209 -1
226 -14 37 -29 -3 -35 -226 -35 -188 0 -218 -2 -223 -16 -3 -9 -6 -58 -6 -109
0 -51 3 -100 6 -109 5 -14 41 -16 300 -16 l294 0 0 50 0 50 -235 0 -235 0 0
25 0 25 223 2 222 3 0 115 0 115 -85 7 c-47 4 -169 8 -271 10 -159 3 -188 1
-202 -13z"/>
<path d="M2150 1140 l0 -140 295 0 295 0 0 56 0 55 -212 -1 c-117 -1 -221 -1
-230 -1 -16 1 -18 12 -18 86 l0 85 -65 0 -65 0 0 -140z"/>
</g>
</svg>
